<svg width="22" height="24" viewBox="0 0 22 24" fill="none" xmlns="http://www.w3.org/2000/svg">
<g id="Group">
<path id="Vector" d="M10.7 21.3334C15.5049 21.3334 19.4 17.0055 19.4 11.6667C19.4 6.32795 15.5049 2.00003 10.7 2.00003C5.89512 2.00003 2 6.32795 2 11.6667C2 17.0055 5.89512 21.3334 10.7 21.3334Z" fill="url(#paint0_linear_1_39)"/>
<path id="Vector_2" d="M10.7 23.3334C16.499 23.3334 21.2 18.11 21.2 11.6667C21.2 5.22336 16.499 0 10.7 0C4.90101 0 0.2 5.22336 0.2 11.6667C0.2 18.11 4.90101 23.3334 10.7 23.3334Z" fill="#FF9255"/>
<path id="Vector_3" d="M10.7 21.3334C15.5049 21.3334 19.4 17.0055 19.4 11.6667C19.4 6.32795 15.5049 2.00003 10.7 2.00003C5.89512 2.00003 2 6.32795 2 11.6667C2 17.0055 5.89512 21.3334 10.7 21.3334Z" fill="url(#paint1_linear_1_39)"/>
<g id="Mask group">
<mask id="mask0_1_39" style="mask-type:alpha" maskUnits="userSpaceOnUse" x="0" y="0" width="22" height="24">
<g id="Group_2">
<path id="Vector_4" d="M10.7 23.3334C16.499 23.3334 21.2 18.11 21.2 11.6667C21.2 5.22336 16.499 0 10.7 0C4.90101 0 0.2 5.22336 0.2 11.6667C0.2 18.11 4.90101 23.3334 10.7 23.3334Z" fill="url(#paint2_linear_1_39)"/>
</g>
</mask>
<g mask="url(#mask0_1_39)">
<g id="Group_3">
<path id="Vector_5" d="M12.9499 12.6752C18.5899 5.3419 24.1999 5.1752 26.2999 6.0086L29.7499 9.6753L26.7499 25.5086L4.9999 33.0086L-7.15006 26.8419L-8.50006 12.1753C-3.70006 15.3975 7.3099 20.0086 12.9499 12.6752Z" fill="url(#paint3_linear_1_39)"/>
<path id="Vector_6" d="M9.8 11.6609C-2.55906 3.33331 -6.1999 5.865 -8.07156 7.2119L-10.6716 11.6609L-4.47948 26.3056L18.2393 28.0558L28.7902 18.9539L27.073 4.33467C23.0672 8.6955 17.6689 16.963 9.8 11.6609Z" fill="url(#paint4_linear_1_39)"/>
</g>
</g>
</g>
</g>
<defs>
<linearGradient id="paint0_linear_1_39" x1="10.7" y1="2" x2="10.7" y2="21.3333" gradientUnits="userSpaceOnUse">
<stop stop-color="#FFBF24"/>
<stop offset="1" stop-color="#F4924B"/>
</linearGradient>
<linearGradient id="paint1_linear_1_39" x1="10.7" y1="2" x2="10.7" y2="21.3333" gradientUnits="userSpaceOnUse">
<stop stop-color="#FFBF24"/>
<stop offset="1" stop-color="#F4924B"/>
</linearGradient>
<linearGradient id="paint2_linear_1_39" x1="10.7" y1="0" x2="10.7" y2="23.3333" gradientUnits="userSpaceOnUse">
<stop stop-color="#FFC123"/>
<stop offset="1" stop-color="#F8832E"/>
</linearGradient>
<linearGradient id="paint3_linear_1_39" x1="10.6249" y1="5.6666" x2="10.6249" y2="33.0086" gradientUnits="userSpaceOnUse">
<stop stop-color="#FF9D55" stop-opacity="0.6"/>
<stop offset="1" stop-color="#FD8A37" stop-opacity="0"/>
</linearGradient>
<linearGradient id="paint4_linear_1_39" x1="7.1139" y1="2.87967" x2="14.0049" y2="29.1658" gradientUnits="userSpaceOnUse">
<stop stop-color="#FFBD3E" stop-opacity="0.49"/>
<stop offset="1" stop-color="white" stop-opacity="0"/>
</linearGradient>
</defs>
</svg>
